# Blender v2.93.5 OBJ File: 'gun.blend'
# www.blender.org
mtllib lazer.mtl
o Torus
v -1.825646 1.309770 0.596573
v -1.967134 1.067495 0.596573
v -1.686574 1.066100 0.596573
v -1.827162 1.004831 -0.036647
v -1.968195 0.854038 0.153319
v -1.687635 0.852642 0.153319
v -1.830569 0.319640 -0.193039
v -1.970580 0.374404 0.043845
v -1.690020 0.373009 0.043845
v -1.833301 -0.229841 0.245162
v -1.972493 -0.010233 0.350586
v -1.691933 -0.011628 0.350586
v -1.833301 -0.229841 0.947983
v -1.972493 -0.010233 0.842560
v -1.691933 -0.011628 0.842560
v -1.830569 0.319640 1.386185
v -1.970580 0.374404 1.149301
v -1.690020 0.373009 1.149301
v -1.827162 1.004831 1.229793
v -1.968195 0.854037 1.039827
v -1.687635 0.852642 1.039827
vt 0.777778 0.523809
vt 0.777778 0.571429
vt 0.666667 0.571428
vt 0.666667 0.523809
vt 1.000000 0.523809
vt 1.000000 0.571429
vt 0.888889 0.571429
vt 0.888889 0.523809
vt 0.777778 0.619048
vt 0.666667 0.619048
vt 1.000000 0.619048
vt 0.888889 0.619048
vt 0.777778 0.666667
vt 0.666667 0.666667
vt 1.000000 0.666667
vt 0.888889 0.666667
vt 0.777778 0.333333
vt 0.777778 0.380952
vt 0.666667 0.380952
vt 0.666667 0.333333
vt 1.000000 0.333333
vt 1.000000 0.380952
vt 0.888889 0.380952
vt 0.888889 0.333333
vt 0.777778 0.428571
vt 0.666667 0.428571
vt 1.000000 0.428571
vt 0.888889 0.428571
vt 0.777778 0.476190
vt 0.666667 0.476190
vt 1.000000 0.476190
vt 0.888889 0.476190
vn -0.8395 0.4903 -0.2341
vn -0.0045 -0.9010 0.4339
vn 0.8444 0.4819 -0.2341
vn -0.8414 0.1242 -0.5260
vn -0.0011 -0.2225 0.9749
vn 0.8425 0.1159 -0.5260
vn -0.8436 -0.3322 -0.4218
vn 0.0031 0.6235 0.7818
vn 0.8403 -0.3406 -0.4218
vn -0.8446 -0.5353 -0.0000
vn 0.0050 1.0000 0.0000
vn 0.8393 -0.5437 -0.0000
vn -0.8436 -0.3322 0.4218
vn 0.0031 0.6235 -0.7818
vn 0.8403 -0.3406 0.4218
vn -0.8414 0.1242 0.5260
vn -0.0011 -0.2225 -0.9749
vn 0.8425 0.1159 0.5260
vn -0.8395 0.4903 0.2341
vn -0.0045 -0.9010 -0.4339
vn 0.8444 0.4819 0.2341
usemtl Laazer
s off
f 1/1/1 4/2/1 5/3/1 2/4/1
f 2/5/2 5/6/2 6/7/2 3/8/2
f 3/8/3 6/7/3 4/2/3 1/1/3
f 4/2/4 7/9/4 8/10/4 5/3/4
f 5/6/5 8/11/5 9/12/5 6/7/5
f 6/7/6 9/12/6 7/9/6 4/2/6
f 7/9/7 10/13/7 11/14/7 8/10/7
f 8/11/8 11/15/8 12/16/8 9/12/8
f 9/12/9 12/16/9 10/13/9 7/9/9
f 10/17/10 13/18/10 14/19/10 11/20/10
f 11/21/11 14/22/11 15/23/11 12/24/11
f 12/24/12 15/23/12 13/18/12 10/17/12
f 13/18/13 16/25/13 17/26/13 14/19/13
f 14/22/14 17/27/14 18/28/14 15/23/14
f 15/23/15 18/28/15 16/25/15 13/18/15
f 16/25/16 19/29/16 20/30/16 17/26/16
f 17/27/17 20/31/17 21/32/17 18/28/17
f 18/28/18 21/32/18 19/29/18 16/25/18
f 19/29/19 1/1/19 2/4/19 20/30/19
f 20/31/20 2/5/20 3/8/20 21/32/20
f 21/32/21 3/8/21 1/1/21 19/29/21
o Torus.001
v -0.903660 1.412020 0.596573
v -1.063011 1.139158 0.596573
v -0.747030 1.137587 0.596573
v -0.905368 1.068583 -0.116590
v -1.064207 0.898752 0.097359
v -0.748226 0.897181 0.097359
v -0.909205 0.296887 -0.292727
v -1.066893 0.358565 -0.025937
v -0.750912 0.356994 -0.025937
v -0.912282 -0.321965 0.200797
v -1.069047 -0.074632 0.319530
v -0.753066 -0.076203 0.319530
v -0.912282 -0.321965 0.992348
v -1.069047 -0.074632 0.873616
v -0.753066 -0.076203 0.873616
v -0.909205 0.296887 1.485873
v -1.066893 0.358565 1.219083
v -0.750912 0.356994 1.219083
v -0.905368 1.068583 1.309736
v -1.064207 0.898752 1.095787
v -0.748226 0.897181 1.095787
vt 0.222222 0.809524
vt 0.222222 0.761905
vt 0.333333 0.761905
vt 0.333333 0.809524
vt 0.000000 0.809524
vt 0.000000 0.761905
vt 0.111111 0.761905
vt 0.111111 0.809524
vt 0.222222 0.714286
vt 0.333333 0.714286
vt 0.000000 0.714286
vt 0.111111 0.714286
vt 0.222222 0.666667
vt 0.333333 0.666667
vt 0.000000 0.666667
vt 0.111111 0.666667
vt 0.222222 1.000000
vt 0.222222 0.952381
vt 0.333333 0.952381
vt 0.333333 1.000000
vt 0.000000 1.000000
vt 0.000000 0.952381
vt 0.111111 0.952381
vt 0.111111 1.000000
vt 0.222222 0.904762
vt 0.333333 0.904762
vt 0.000000 0.904762
vt 0.111111 0.904762
vt 0.222222 0.857143
vt 0.333333 0.857143
vt 0.000000 0.857143
vt 0.111111 0.857143
vn -0.8395 0.4903 -0.2341
vn -0.0045 -0.9010 0.4339
vn 0.8444 0.4819 -0.2341
vn -0.8414 0.1242 -0.5260
vn -0.0011 -0.2225 0.9749
vn 0.8425 0.1159 -0.5260
vn -0.8436 -0.3322 -0.4218
vn 0.0031 0.6235 0.7818
vn 0.8403 -0.3406 -0.4218
vn -0.8446 -0.5353 -0.0000
vn 0.0050 1.0000 0.0000
vn 0.8393 -0.5437 -0.0000
vn -0.8436 -0.3322 0.4218
vn 0.0031 0.6235 -0.7818
vn 0.8403 -0.3406 0.4218
vn -0.8414 0.1242 0.5260
vn -0.0011 -0.2225 -0.9749
vn 0.8425 0.1159 0.5260
vn -0.8395 0.4903 0.2341
vn -0.0045 -0.9010 -0.4339
vn 0.8444 0.4819 0.2341
usemtl Laazer
s off
f 22/33/22 25/34/22 26/35/22 23/36/22
f 23/37/23 26/38/23 27/39/23 24/40/23
f 24/40/24 27/39/24 25/34/24 22/33/24
f 25/34/25 28/41/25 29/42/25 26/35/25
f 26/38/26 29/43/26 30/44/26 27/39/26
f 27/39/27 30/44/27 28/41/27 25/34/27
f 28/41/28 31/45/28 32/46/28 29/42/28
f 29/43/29 32/47/29 33/48/29 30/44/29
f 30/44/30 33/48/30 31/45/30 28/41/30
f 31/49/31 34/50/31 35/51/31 32/52/31
f 32/53/32 35/54/32 36/55/32 33/56/32
f 33/56/33 36/55/33 34/50/33 31/49/33
f 34/50/34 37/57/34 38/58/34 35/51/34
f 35/54/35 38/59/35 39/60/35 36/55/35
f 36/55/36 39/60/36 37/57/36 34/50/36
f 37/57/37 40/61/37 41/62/37 38/58/37
f 38/59/38 41/63/38 42/64/38 39/60/38
f 39/60/39 42/64/39 40/61/39 37/57/39
f 40/61/40 22/33/40 23/36/40 41/62/40
f 41/63/41 23/37/41 24/40/41 42/64/41
f 42/64/42 24/40/42 22/33/42 40/61/42
o Torus.002
v 0.066560 1.497063 0.596573
v -0.107648 1.198761 0.596573
v 0.237793 1.197044 0.596573
v 0.064693 1.121606 -0.183080
v -0.108955 0.935942 0.050816
v 0.236486 0.934224 0.050816
v 0.060498 0.277963 -0.375639
v -0.111891 0.345391 -0.083975
v 0.233549 0.343674 -0.083975
v 0.057134 -0.398586 0.163898
v -0.114246 -0.128193 0.293700
v 0.231195 -0.129911 0.293700
v 0.057134 -0.398587 1.029247
v -0.114246 -0.128193 0.899445
v 0.231195 -0.129911 0.899445
v 0.060498 0.277963 1.568784
v -0.111891 0.345391 1.277121
v 0.233549 0.343674 1.277121
v 0.064693 1.121606 1.376226
v -0.108955 0.935941 1.142330
v 0.236486 0.934224 1.142330
vt 0.285714 0.222222
vt 0.190476 0.222222
vt 0.190476 0.000000
vt 0.285714 0.000000
vt 0.285714 0.666667
vt 0.190476 0.666667
vt 0.190476 0.444444
vt 0.285714 0.444444
vt 0.095238 0.222222
vt 0.095238 0.000000
vt 0.095238 0.666667
vt 0.095238 0.444444
vt 0.000000 0.222222
vt 0.000000 0.000000
vt 0.000000 0.666667
vt 0.000000 0.444444
vt 0.666667 0.222222
vt 0.571429 0.222222
vt 0.571429 0.000000
vt 0.666667 0.000000
vt 0.666667 0.666667
vt 0.571428 0.666667
vt 0.571429 0.444444
vt 0.666667 0.444444
vt 0.476191 0.222222
vt 0.476191 0.000000
vt 0.476190 0.666667
vt 0.476190 0.444444
vt 0.380952 0.222222
vt 0.380952 0.000000
vt 0.380952 0.666667
vt 0.380952 0.444444
vn -0.8395 0.4903 -0.2341
vn -0.0045 -0.9010 0.4339
vn 0.8444 0.4819 -0.2341
vn -0.8414 0.1242 -0.5260
vn -0.0011 -0.2225 0.9749
vn 0.8425 0.1159 -0.5260
vn -0.8436 -0.3322 -0.4218
vn 0.0031 0.6235 0.7818
vn 0.8403 -0.3406 -0.4218
vn -0.8446 -0.5353 -0.0000
vn 0.0050 1.0000 0.0000
vn 0.8393 -0.5437 -0.0000
vn -0.8436 -0.3322 0.4218
vn 0.0031 0.6235 -0.7818
vn 0.8403 -0.3406 0.4218
vn -0.8414 0.1242 0.5260
vn -0.0011 -0.2225 -0.9749
vn 0.8425 0.1159 0.5260
vn -0.8395 0.4903 0.2341
vn -0.0045 -0.9010 -0.4339
vn 0.8444 0.4819 0.2341
usemtl Laazer
s off
f 43/65/43 46/66/43 47/67/43 44/68/43
f 44/69/44 47/70/44 48/71/44 45/72/44
f 45/72/45 48/71/45 46/66/45 43/65/45
f 46/66/46 49/73/46 50/74/46 47/67/46
f 47/70/47 50/75/47 51/76/47 48/71/47
f 48/71/48 51/76/48 49/73/48 46/66/48
f 49/73/49 52/77/49 53/78/49 50/74/49
f 50/75/50 53/79/50 54/80/50 51/76/50
f 51/76/51 54/80/51 52/77/51 49/73/51
f 52/81/52 55/82/52 56/83/52 53/84/52
f 53/85/53 56/86/53 57/87/53 54/88/53
f 54/88/54 57/87/54 55/82/54 52/81/54
f 55/82/55 58/89/55 59/90/55 56/83/55
f 56/86/56 59/91/56 60/92/56 57/87/56
f 57/87/57 60/92/57 58/89/57 55/82/57
f 58/89/58 61/93/58 62/94/58 59/90/58
f 59/91/59 62/95/59 63/96/59 60/92/59
f 60/92/60 63/96/60 61/93/60 58/89/60
f 61/93/61 43/65/61 44/68/61 62/94/61
f 62/95/62 44/69/62 45/72/62 63/96/62
f 63/96/63 45/72/63 43/65/63 61/93/63
o Torus.003
v -2.683049 1.231429 0.596573
v -2.810852 1.012589 0.596573
v -2.557429 1.011329 0.596573
v -2.684419 0.955986 0.024603
v -2.811810 0.819779 0.196194
v -2.558388 0.818519 0.196194
v -2.687496 0.337072 -0.116662
v -2.813965 0.386539 0.097309
v -2.560542 0.385279 0.097309
v -2.689965 -0.159258 0.279154
v -2.815692 0.039108 0.374379
v -2.562270 0.037847 0.374379
v -2.689965 -0.159259 0.913992
v -2.815692 0.039107 0.818766
v -2.562270 0.037847 0.818766
v -2.687496 0.337072 1.309808
v -2.813965 0.386539 1.095837
v -2.560542 0.385279 1.095837
v -2.684419 0.955986 1.168543
v -2.811810 0.819779 0.996952
v -2.558388 0.818519 0.996952
vt 0.777778 0.190476
vt 0.777778 0.238095
vt 0.666667 0.238095
vt 0.666667 0.190476
vt 1.000000 0.190476
vt 1.000000 0.238095
vt 0.888889 0.238095
vt 0.888889 0.190476
vt 0.777778 0.285714
vt 0.666667 0.285714
vt 1.000000 0.285714
vt 0.888889 0.285714
vt 0.777778 0.333333
vt 0.666667 0.333333
vt 1.000000 0.333333
vt 0.888889 0.333333
vt 0.777778 0.000000
vt 0.777778 0.047619
vt 0.666667 0.047619
vt 0.666667 0.000000
vt 1.000000 0.000000
vt 1.000000 0.047619
vt 0.888889 0.047619
vt 0.888889 0.000000
vt 0.777778 0.095238
vt 0.666667 0.095238
vt 1.000000 0.095238
vt 0.888889 0.095238
vt 0.777778 0.142857
vt 0.666667 0.142857
vt 1.000000 0.142857
vt 0.888889 0.142857
vn -0.8395 0.4903 -0.2341
vn -0.0045 -0.9010 0.4339
vn 0.8444 0.4819 -0.2341
vn -0.8414 0.1242 -0.5260
vn -0.0011 -0.2225 0.9749
vn 0.8425 0.1159 -0.5260
vn -0.8436 -0.3322 -0.4218
vn 0.0031 0.6235 0.7818
vn 0.8403 -0.3406 -0.4218
vn -0.8446 -0.5353 -0.0000
vn 0.0050 1.0000 0.0000
vn 0.8393 -0.5437 -0.0000
vn -0.8436 -0.3322 0.4218
vn 0.0031 0.6235 -0.7818
vn 0.8403 -0.3406 0.4218
vn -0.8414 0.1242 0.5260
vn -0.0011 -0.2225 -0.9749
vn 0.8425 0.1159 0.5260
vn -0.8395 0.4903 0.2341
vn -0.0045 -0.9010 -0.4339
vn 0.8444 0.4819 0.2341
usemtl Laazer
s off
f 64/97/64 67/98/64 68/99/64 65/100/64
f 65/101/65 68/102/65 69/103/65 66/104/65
f 66/104/66 69/103/66 67/98/66 64/97/66
f 67/98/67 70/105/67 71/106/67 68/99/67
f 68/102/68 71/107/68 72/108/68 69/103/68
f 69/103/69 72/108/69 70/105/69 67/98/69
f 70/105/70 73/109/70 74/110/70 71/106/70
f 71/107/71 74/111/71 75/112/71 72/108/71
f 72/108/72 75/112/72 73/109/72 70/105/72
f 73/113/73 76/114/73 77/115/73 74/116/73
f 74/117/74 77/118/74 78/119/74 75/120/74
f 75/120/75 78/119/75 76/114/75 73/113/75
f 76/114/76 79/121/76 80/122/76 77/115/76
f 77/118/77 80/123/77 81/124/77 78/119/77
f 78/119/78 81/124/78 79/121/78 76/114/78
f 79/121/79 82/125/79 83/126/79 80/122/79
f 80/123/80 83/127/80 84/128/80 81/124/80
f 81/124/81 84/128/81 82/125/81 79/121/81
f 82/125/82 64/97/82 65/100/82 83/126/82
f 83/127/83 65/101/83 66/104/83 84/128/83
f 84/128/84 66/104/84 64/97/84 82/125/84
o Cylinder.010_Cylinder.037
v -3.146043 0.688605 0.844002
v 1.215263 0.688605 0.844002
v -3.146043 0.631542 0.885461
v 1.215263 0.631542 0.885461
v -3.146043 0.653338 0.952543
v 1.215263 0.653338 0.952543
v -3.146043 0.723872 0.952543
v 1.215263 0.723872 0.952543
v -3.146043 0.745669 0.885461
v 1.215263 0.745669 0.885461
vt 0.358921 0.717843
vt 0.333333 0.717843
vt 0.333333 0.707608
vt 0.358922 0.707608
vt 0.333333 0.697373
vt 0.358922 0.697373
vt 0.333333 0.687137
vt 0.358922 0.687137
vt 0.529679 0.690029
vt 0.521192 0.678348
vt 0.529679 0.666667
vt 0.543411 0.671129
vt 0.543411 0.685567
vt 0.333333 0.676902
vt 0.358922 0.676902
vt 0.333333 0.666667
vt 0.358922 0.666667
vt 0.440804 0.690029
vt 0.454536 0.685567
vt 0.454536 0.671128
vt 0.440804 0.666667
vt 0.432317 0.678348
vn 0.0000 -0.5878 -0.8090
vn 0.0000 -0.9511 0.3090
vn 0.0000 0.0000 1.0000
vn 1.0000 0.0000 0.0000
vn 0.0000 0.9511 0.3090
vn 0.0000 0.5878 -0.8090
vn -1.0000 0.0000 0.0000
usemtl Laazer
s off
f 85/129/85 86/130/85 88/131/85 87/132/85
f 87/132/86 88/131/86 90/133/86 89/134/86
f 89/134/87 90/133/87 92/135/87 91/136/87
f 88/137/88 86/138/88 94/139/88 92/140/88 90/141/88
f 91/136/89 92/135/89 94/142/89 93/143/89
f 93/143/90 94/142/90 86/144/90 85/145/90
f 85/146/91 87/147/91 89/148/91 91/149/91 93/150/91
o Cylinder.011_Cylinder.038
v -3.146043 0.688605 0.237860
v 1.215263 0.688605 0.237860
v -3.146043 0.631542 0.279319
v 1.215263 0.631542 0.279319
v -3.146043 0.653338 0.346401
v 1.215263 0.653338 0.346401
v -3.146043 0.723872 0.346401
v 1.215263 0.723872 0.346401
v -3.146043 0.745669 0.279319
v 1.215263 0.745669 0.279319
vt 0.384510 0.717843
vt 0.358921 0.717843
vt 0.358921 0.707608
vt 0.384510 0.707608
vt 0.358921 0.697373
vt 0.384510 0.697373
vt 0.358921 0.687137
vt 0.384510 0.687137
vt 0.498974 0.671129
vt 0.498974 0.685567
vt 0.485241 0.690029
vt 0.476755 0.678348
vt 0.485241 0.666667
vt 0.358921 0.676902
vt 0.384510 0.676902
vt 0.358921 0.666667
vt 0.384510 0.666667
vt 0.463023 0.690029
vt 0.476755 0.685567
vt 0.476755 0.671128
vt 0.463023 0.666667
vt 0.454536 0.678348
vn 0.0000 -0.5878 -0.8090
vn 0.0000 -0.9511 0.3090
vn 0.0000 0.0000 1.0000
vn 1.0000 0.0000 0.0000
vn 0.0000 0.9511 0.3090
vn 0.0000 0.5878 -0.8090
vn -1.0000 -0.0000 0.0000
usemtl gun_material
s off
f 95/151/92 96/152/92 98/153/92 97/154/92
f 97/154/93 98/153/93 100/155/93 99/156/93
f 99/156/94 100/155/94 102/157/94 101/158/94
f 98/159/95 96/160/95 104/161/95 102/162/95 100/163/95
f 101/158/96 102/157/96 104/164/96 103/165/96
f 103/165/97 104/164/97 96/166/97 95/167/97
f 95/168/98 97/169/98 99/170/98 101/171/98 103/172/98
o Cylinder.012_Cylinder.039
v -3.146043 0.212526 0.543927
v 1.215263 0.212526 0.543927
v -3.146043 0.155462 0.585386
v 1.215263 0.155462 0.585386
v -3.146043 0.177259 0.652468
v 1.215263 0.177259 0.652468
v -3.146043 0.247793 0.652468
v 1.215263 0.247793 0.652468
v -3.146043 0.269589 0.585386
v 1.215263 0.269589 0.585386
vt 0.410098 0.717843
vt 0.384510 0.717843
vt 0.384510 0.707608
vt 0.410098 0.707608
vt 0.384510 0.697373
vt 0.410098 0.697373
vt 0.384510 0.687137
vt 0.410098 0.687137
vt 0.432317 0.671128
vt 0.432317 0.685567
vt 0.418585 0.690029
vt 0.410098 0.678348
vt 0.418585 0.666667
vt 0.384510 0.676902
vt 0.410098 0.676902
vt 0.384510 0.666667
vt 0.410098 0.666667
vt 0.498974 0.678348
vt 0.507460 0.690029
vt 0.521192 0.685567
vt 0.521192 0.671129
vt 0.507460 0.666667
vn 0.0000 -0.5878 -0.8090
vn 0.0000 -0.9511 0.3090
vn 0.0000 0.0000 1.0000
vn 1.0000 0.0000 0.0000
vn 0.0000 0.9511 0.3090
vn 0.0000 0.5878 -0.8090
vn -1.0000 0.0000 0.0000
usemtl Laazer
s off
f 105/173/99 106/174/99 108/175/99 107/176/99
f 107/176/100 108/175/100 110/177/100 109/178/100
f 109/178/101 110/177/101 112/179/101 111/180/101
f 108/181/102 106/182/102 114/183/102 112/184/102 110/185/102
f 111/180/103 112/179/103 114/186/103 113/187/103
f 113/187/104 114/186/104 106/188/104 105/189/104
f 105/190/105 107/191/105 109/192/105 111/193/105 113/194/105
