# Blender v2.93.5 OBJ File: 'gun.blend'
# www.blender.org
mtllib lazer.mtl
o Torus.001
v 0.005340 1.412020 -0.937061
v 0.005340 1.139158 -0.777710
v 0.005340 1.137587 -1.093691
v -0.707823 1.068583 -0.935353
v -0.493874 0.898752 -0.776515
v -0.493874 0.897181 -1.092496
v -0.883960 0.296887 -0.931516
v -0.617170 0.358565 -0.773828
v -0.617170 0.356994 -1.089809
v -0.390436 -0.321965 -0.928439
v -0.271703 -0.074632 -0.771674
v -0.271703 -0.076203 -1.087655
v 0.401115 -0.321965 -0.928439
v 0.282383 -0.074632 -0.771674
v 0.282383 -0.076203 -1.087655
v 0.894640 0.296887 -0.931516
v 0.627850 0.358565 -0.773828
v 0.627850 0.356994 -1.089809
v 0.718503 1.068583 -0.935354
v 0.504554 0.898752 -0.776515
v 0.504554 0.897181 -1.092496
v 0.005340 1.309770 -0.015075
v 0.005340 1.067495 0.126413
v 0.005340 1.066100 -0.154148
v -0.627880 1.004831 -0.013559
v -0.437914 0.854038 0.127474
v -0.437914 0.852642 -0.153086
v -0.784272 0.319640 -0.010152
v -0.547388 0.374404 0.129860
v -0.547388 0.373009 -0.150701
v -0.346071 -0.229841 -0.007420
v -0.240647 -0.010233 0.131772
v -0.240647 -0.011628 -0.148788
v 0.356750 -0.229841 -0.007420
v 0.251327 -0.010233 0.131772
v 0.251327 -0.011628 -0.148788
v 0.794952 0.319640 -0.010152
v 0.558068 0.374404 0.129859
v 0.558068 0.373009 -0.150701
v 0.638560 1.004831 -0.013559
v 0.448594 0.854037 0.127474
v 0.448594 0.852642 -0.153086
v 0.005340 1.497063 -1.907281
v 0.005340 1.198761 -1.733073
v 0.005340 1.197044 -2.078514
v -0.774314 1.121606 -1.905414
v -0.540418 0.935942 -1.731766
v -0.540418 0.934224 -2.077207
v -0.966872 0.277963 -1.901219
v -0.675208 0.345391 -1.728830
v -0.675208 0.343674 -2.074271
v -0.427335 -0.398586 -1.897855
v -0.297533 -0.128193 -1.726475
v -0.297533 -0.129911 -2.071916
v 0.438014 -0.398587 -1.897855
v 0.308212 -0.128193 -1.726475
v 0.308212 -0.129911 -2.071916
v 0.977551 0.277963 -1.901219
v 0.685888 0.345391 -1.728830
v 0.685888 0.343674 -2.074271
v 0.784993 1.121606 -1.905414
v 0.551097 0.935941 -1.731766
v 0.551097 0.934224 -2.077207
v 0.005340 1.231429 0.842328
v 0.005340 1.012589 0.970131
v 0.005340 1.011329 0.716708
v -0.566630 0.955986 0.843698
v -0.395039 0.819779 0.971090
v -0.395039 0.818519 0.717667
v -0.707895 0.337072 0.846776
v -0.493924 0.386539 0.973244
v -0.493924 0.385279 0.719821
v -0.312079 -0.159259 0.849244
v -0.216854 0.039107 0.974972
v -0.216854 0.037847 0.721549
v 0.322759 -0.159259 0.849244
v 0.227533 0.039107 0.974972
v 0.227533 0.037847 0.721549
v 0.718575 0.337072 0.846775
v 0.504604 0.386539 0.973244
v 0.504604 0.385279 0.719821
v 0.577310 0.955986 0.843698
v 0.405719 0.819779 0.971090
v 0.405719 0.818519 0.717667
v 0.252769 0.688605 1.305322
v 0.252769 0.688605 -3.055984
v 0.294228 0.631542 1.305322
v 0.294228 0.631542 -3.055984
v 0.361310 0.653338 1.305322
v 0.361310 0.653338 -3.055984
v 0.361310 0.723872 1.305322
v 0.361310 0.723872 -3.055984
v 0.294228 0.745669 1.305322
v 0.294228 0.745669 -3.055984
v -0.353373 0.688605 1.305322
v -0.353373 0.688605 -3.055984
v -0.311914 0.631542 1.305322
v -0.311914 0.631542 -3.055984
v -0.244832 0.653338 1.305322
v -0.244832 0.653338 -3.055984
v -0.244832 0.723872 1.305322
v -0.244832 0.723872 -3.055984
v -0.311914 0.745669 1.305322
v -0.311914 0.745669 -3.055984
v -0.047306 0.212526 1.305322
v -0.047306 0.212526 -3.055984
v -0.005847 0.155462 1.305322
v -0.005847 0.155462 -3.055984
v 0.061235 0.177259 1.305322
v 0.061235 0.177259 -3.055984
v 0.061235 0.247793 1.305322
v 0.061235 0.247793 -3.055984
v -0.005847 0.269589 1.305322
v -0.005847 0.269589 -3.055984
vt 0.222222 0.761905
vt 0.333333 0.809524
vt 0.222222 0.809524
vt 0.000000 0.761905
vt 0.111111 0.809524
vt 0.000000 0.809524
vt 0.111111 0.761905
vt 0.222222 0.714286
vt 0.333333 0.761905
vt 0.000000 0.714286
vt 0.111111 0.714286
vt 0.222222 0.666667
vt 0.333333 0.714286
vt 0.000000 0.666667
vt 0.111111 0.666667
vt 0.222222 0.952381
vt 0.333333 1.000000
vt 0.222222 1.000000
vt 0.000000 0.952381
vt 0.111111 1.000000
vt 0.000000 1.000000
vt 0.222222 0.904762
vt 0.333333 0.952381
vt 0.000000 0.904762
vt 0.111111 0.952381
vt 0.111111 0.904762
vt 0.222222 0.857143
vt 0.333333 0.904762
vt 0.000000 0.857143
vt 0.111111 0.857143
vt 0.333333 0.857143
vt 0.777778 0.571429
vt 0.666667 0.523809
vt 0.777778 0.523809
vt 1.000000 0.571429
vt 0.888889 0.523809
vt 1.000000 0.523809
vt 0.888889 0.571429
vt 0.777778 0.619048
vt 0.666667 0.571428
vt 1.000000 0.619048
vt 0.888889 0.619048
vt 0.666667 0.666667
vt 0.666667 0.619048
vt 1.000000 0.666667
vt 0.888889 0.666667
vt 0.777778 0.380952
vt 0.666667 0.333333
vt 0.777778 0.333333
vt 1.000000 0.380952
vt 0.888889 0.333333
vt 1.000000 0.333333
vt 0.888889 0.380952
vt 0.666667 0.428571
vt 0.666667 0.380952
vt 1.000000 0.428571
vt 0.777778 0.428571
vt 0.666667 0.476190
vt 1.000000 0.476190
vt 0.888889 0.428571
vt 0.888889 0.476190
vt 0.777778 0.476190
vt 0.190476 0.222222
vt 0.285714 0.000000
vt 0.285714 0.222222
vt 0.190476 0.666667
vt 0.285714 0.444444
vt 0.285714 0.666667
vt 0.095238 0.222222
vt 0.190476 0.000000
vt 0.095238 0.666667
vt 0.190476 0.444444
vt 0.095238 0.444444
vt 0.000000 0.222222
vt 0.095238 0.000000
vt 0.000000 0.666667
vt 0.000000 0.444444
vt 0.571429 0.222222
vt 0.666667 0.000000
vt 0.666667 0.222222
vt 0.571428 0.666667
vt 0.666667 0.444444
vt 0.666667 0.666667
vt 0.476191 0.222222
vt 0.571429 0.000000
vt 0.476190 0.666667
vt 0.571429 0.444444
vt 0.476190 0.444444
vt 0.380952 0.222222
vt 0.476191 0.000000
vt 0.380952 0.666667
vt 0.380952 0.444444
vt 0.380952 0.000000
vt 0.777778 0.238095
vt 0.666667 0.190476
vt 0.777778 0.190476
vt 1.000000 0.238095
vt 0.888889 0.190476
vt 1.000000 0.190476
vt 0.777778 0.285714
vt 0.666667 0.238095
vt 1.000000 0.285714
vt 0.888889 0.238095
vt 0.888889 0.285714
vt 0.777778 0.333333
vt 0.666667 0.285714
vt 1.000000 0.333333
vt 0.888889 0.333333
vt 0.777778 0.047619
vt 0.666667 0.000000
vt 0.777778 0.000000
vt 1.000000 0.047619
vt 0.888889 0.000000
vt 1.000000 0.000000
vt 0.888889 0.047619
vt 0.777778 0.095238
vt 0.666667 0.047619
vt 1.000000 0.095238
vt 0.777778 0.142857
vt 0.666667 0.095238
vt 1.000000 0.142857
vt 0.888889 0.095238
vt 0.888889 0.142857
vt 0.666667 0.142857
vt 0.358921 0.717843
vt 0.333333 0.707608
vt 0.358922 0.707608
vt 0.358922 0.697373
vt 0.333333 0.687137
vt 0.358922 0.687137
vt 0.529679 0.666667
vt 0.543411 0.671129
vt 0.543411 0.685567
vt 0.358922 0.676902
vt 0.333333 0.666667
vt 0.358922 0.666667
vt 0.454536 0.685567
vt 0.440804 0.666667
vt 0.432317 0.678348
vt 0.384510 0.717843
vt 0.410098 0.707608
vt 0.410098 0.717843
vt 0.384510 0.707608
vt 0.410098 0.697373
vt 0.384510 0.687137
vt 0.410098 0.687137
vt 0.432317 0.685567
vt 0.410098 0.678348
vt 0.418585 0.666667
vt 0.410098 0.676902
vt 0.384510 0.666667
vt 0.410098 0.666667
vt 0.521192 0.685567
vt 0.521192 0.671129
vt 0.507460 0.666667
vt 0.333333 0.666667
vt 0.777778 0.666667
vt 0.000000 0.000000
vt 0.666667 0.333333
vt 0.333333 0.717843
vt 0.333333 0.697373
vt 0.529679 0.690029
vt 0.521192 0.678348
vt 0.333333 0.676902
vt 0.440804 0.690029
vt 0.454536 0.671128
vt 0.384510 0.697373
vt 0.432317 0.671128
vt 0.418585 0.690029
vt 0.384510 0.676902
vt 0.498974 0.678348
vt 0.507460 0.690029
vt 0.384510 0.717843
vt 0.358921 0.707608
vt 0.384510 0.707608
vt 0.384510 0.697373
vt 0.358921 0.697373
vt 0.384510 0.687137
vt 0.498974 0.685567
vt 0.476755 0.678348
vt 0.485241 0.666667
vt 0.358921 0.687137
vt 0.384510 0.676902
vt 0.358921 0.676902
vt 0.384510 0.666667
vt 0.476755 0.685567
vt 0.463023 0.666667
vt 0.454536 0.678348
vt 0.358921 0.717843
vt 0.498974 0.671129
vt 0.485241 0.690029
vt 0.358921 0.666667
vt 0.463023 0.690029
vt 0.476755 0.671128
vn -0.2341 0.4903 0.8395
vn 0.4339 -0.9010 0.0045
vn -0.2341 0.4819 -0.8444
vn -0.5260 0.1242 0.8414
vn 0.9749 -0.2225 0.0011
vn -0.5260 0.1159 -0.8425
vn -0.4218 -0.3322 0.8436
vn 0.7818 0.6235 -0.0031
vn -0.4218 -0.3406 -0.8403
vn 0.0000 -0.5353 0.8446
vn 0.0000 1.0000 -0.0050
vn -0.0000 -0.5437 -0.8393
vn 0.4218 -0.3322 0.8436
vn -0.7818 0.6235 -0.0031
vn 0.4218 -0.3406 -0.8403
vn 0.5260 0.1242 0.8414
vn -0.9749 -0.2225 0.0011
vn 0.5260 0.1159 -0.8425
vn 0.2341 0.4903 0.8395
vn -0.4339 -0.9010 0.0045
vn 0.2341 0.4819 -0.8444
vn -0.8090 -0.5878 0.0000
vn 0.3090 -0.9511 -0.0000
vn 1.0000 0.0000 -0.0000
vn 0.0000 0.0000 -1.0000
vn 0.3090 0.9511 0.0000
vn -0.8090 0.5878 0.0000
vn -0.0000 0.0000 1.0000
usemtl Laazer
s off
f 4/1/1 2/2/1 1/3/1
f 5/4/2 3/5/2 2/6/2
f 6/7/3 1/3/3 3/5/3
f 7/8/4 5/9/4 4/1/4
f 8/10/5 6/7/5 5/4/5
f 9/11/6 4/1/6 6/7/6
f 10/12/7 8/13/7 7/8/7
f 11/14/8 9/11/8 8/10/8
f 12/15/9 7/8/9 9/11/9
f 13/16/10 11/17/10 10/18/10
f 14/19/11 12/20/11 11/21/11
f 12/20/12 13/16/12 10/18/12
f 16/22/13 14/23/13 13/16/13
f 17/24/14 15/25/14 14/19/14
f 18/26/15 13/16/15 15/25/15
f 19/27/16 17/28/16 16/22/16
f 20/29/17 18/26/17 17/24/17
f 21/30/18 16/22/18 18/26/18
f 1/3/19 20/31/19 19/27/19
f 2/6/20 21/30/20 20/29/20
f 3/5/21 19/27/21 21/30/21
f 25/32/1 23/33/1 22/34/1
f 26/35/2 24/36/2 23/37/2
f 27/38/3 22/34/3 24/36/3
f 28/39/4 26/40/4 25/32/4
f 29/41/5 27/38/5 26/35/5
f 30/42/6 25/32/6 27/38/6
f 28/39/7 32/43/7 29/44/7
f 32/45/8 30/42/8 29/41/8
f 33/46/9 28/39/9 30/42/9
f 34/47/10 32/48/10 31/49/10
f 35/50/11 33/51/11 32/52/11
f 36/53/12 31/49/12 33/51/12
f 34/47/13 38/54/13 35/55/13
f 38/56/14 36/53/14 35/50/14
f 36/53/15 37/57/15 34/47/15
f 37/57/16 41/58/16 38/54/16
f 41/59/17 39/60/17 38/56/17
f 42/61/18 37/57/18 39/60/18
f 22/34/19 41/58/19 40/62/19
f 23/37/20 42/61/20 41/59/20
f 24/36/21 40/62/21 42/61/21
f 46/63/1 44/64/1 43/65/1
f 47/66/2 45/67/2 44/68/2
f 45/67/3 46/63/3 43/65/3
f 49/69/4 47/70/4 46/63/4
f 50/71/5 48/72/5 47/66/5
f 51/73/6 46/63/6 48/72/6
f 52/74/7 50/75/7 49/69/7
f 53/76/8 51/73/8 50/71/8
f 54/77/9 49/69/9 51/73/9
f 55/78/10 53/79/10 52/80/10
f 56/81/11 54/82/11 53/83/11
f 54/82/12 55/78/12 52/80/12
f 58/84/13 56/85/13 55/78/13
f 59/86/14 57/87/14 56/81/14
f 60/88/15 55/78/15 57/87/15
f 61/89/16 59/90/16 58/84/16
f 62/91/17 60/88/17 59/86/17
f 63/92/18 58/84/18 60/88/18
f 43/65/19 62/93/19 61/89/19
f 44/68/20 63/92/20 62/91/20
f 45/67/21 61/89/21 63/92/21
f 67/94/1 65/95/1 64/96/1
f 68/97/2 66/98/2 65/99/2
f 66/98/3 67/94/3 64/96/3
f 70/100/4 68/101/4 67/94/4
f 71/102/5 69/103/5 68/97/5
f 72/104/6 67/94/6 69/103/6
f 73/105/7 71/106/7 70/100/7
f 74/107/8 72/104/8 71/102/8
f 75/108/9 70/100/9 72/104/9
f 76/109/10 74/110/10 73/111/10
f 77/112/11 75/113/11 74/114/11
f 78/115/12 73/111/12 75/113/12
f 79/116/13 77/117/13 76/109/13
f 80/118/14 78/115/14 77/112/14
f 78/115/15 79/116/15 76/109/15
f 82/119/16 80/120/16 79/116/16
f 83/121/17 81/122/17 80/118/17
f 84/123/18 79/116/18 81/122/18
f 82/119/19 65/95/19 83/124/19
f 65/99/20 84/123/20 83/121/20
f 66/98/21 82/119/21 84/123/21
f 85/125/22 88/126/22 87/127/22
f 88/126/23 89/128/23 87/127/23
f 89/128/24 92/129/24 91/130/24
f 94/131/25 92/132/25 90/133/25
f 92/129/26 93/134/26 91/130/26
f 93/134/27 86/135/27 85/136/27
f 87/137/28 91/138/28 93/139/28
f 106/140/22 107/141/22 105/142/22
f 108/143/23 109/144/23 107/141/23
f 109/144/24 112/145/24 111/146/24
f 106/147/25 112/148/25 110/149/25
f 112/145/26 113/150/26 111/146/26
f 113/150/27 106/151/27 105/152/27
f 109/153/28 111/154/28 113/155/28
f 4/1/1 5/9/1 2/2/1
f 5/4/2 6/7/2 3/5/2
f 6/7/3 4/1/3 1/3/3
f 7/8/4 8/13/4 5/9/4
f 8/10/5 9/11/5 6/7/5
f 9/11/6 7/8/6 4/1/6
f 10/12/7 11/156/7 8/13/7
f 11/14/8 12/15/8 9/11/8
f 12/15/9 10/12/9 7/8/9
f 13/16/10 14/23/10 11/17/10
f 14/19/11 15/25/11 12/20/11
f 12/20/12 15/25/12 13/16/12
f 16/22/13 17/28/13 14/23/13
f 17/24/14 18/26/14 15/25/14
f 18/26/15 16/22/15 13/16/15
f 19/27/16 20/31/16 17/28/16
f 20/29/17 21/30/17 18/26/17
f 21/30/18 19/27/18 16/22/18
f 1/3/19 2/2/19 20/31/19
f 2/6/20 3/5/20 21/30/20
f 3/5/21 1/3/21 19/27/21
f 25/32/1 26/40/1 23/33/1
f 26/35/2 27/38/2 24/36/2
f 27/38/3 25/32/3 22/34/3
f 28/39/4 29/44/4 26/40/4
f 29/41/5 30/42/5 27/38/5
f 30/42/6 28/39/6 25/32/6
f 28/39/7 31/157/7 32/43/7
f 32/45/8 33/46/8 30/42/8
f 33/46/9 31/157/9 28/39/9
f 34/47/10 35/55/10 32/48/10
f 35/50/11 36/53/11 33/51/11
f 36/53/12 34/47/12 31/49/12
f 34/47/13 37/57/13 38/54/13
f 38/56/14 39/60/14 36/53/14
f 36/53/15 39/60/15 37/57/15
f 37/57/16 40/62/16 41/58/16
f 41/59/17 42/61/17 39/60/17
f 42/61/18 40/62/18 37/57/18
f 22/34/19 23/33/19 41/58/19
f 23/37/20 24/36/20 42/61/20
f 24/36/21 22/34/21 40/62/21
f 46/63/1 47/70/1 44/64/1
f 47/66/2 48/72/2 45/67/2
f 45/67/3 48/72/3 46/63/3
f 49/69/4 50/75/4 47/70/4
f 50/71/5 51/73/5 48/72/5
f 51/73/6 49/69/6 46/63/6
f 52/74/7 53/158/7 50/75/7
f 53/76/8 54/77/8 51/73/8
f 54/77/9 52/74/9 49/69/9
f 55/78/10 56/85/10 53/79/10
f 56/81/11 57/87/11 54/82/11
f 54/82/12 57/87/12 55/78/12
f 58/84/13 59/90/13 56/85/13
f 59/86/14 60/88/14 57/87/14
f 60/88/15 58/84/15 55/78/15
f 61/89/16 62/93/16 59/90/16
f 62/91/17 63/92/17 60/88/17
f 63/92/18 61/89/18 58/84/18
f 43/65/19 44/64/19 62/93/19
f 44/68/20 45/67/20 63/92/20
f 45/67/21 43/65/21 61/89/21
f 67/94/1 68/101/1 65/95/1
f 68/97/2 69/103/2 66/98/2
f 66/98/3 69/103/3 67/94/3
f 70/100/4 71/106/4 68/101/4
f 71/102/5 72/104/5 69/103/5
f 72/104/6 70/100/6 67/94/6
f 73/105/7 74/159/7 71/106/7
f 74/107/8 75/108/8 72/104/8
f 75/108/9 73/105/9 70/100/9
f 76/109/10 77/117/10 74/110/10
f 77/112/11 78/115/11 75/113/11
f 78/115/12 76/109/12 73/111/12
f 79/116/13 80/120/13 77/117/13
f 80/118/14 81/122/14 78/115/14
f 78/115/15 81/122/15 79/116/15
f 82/119/16 83/124/16 80/120/16
f 83/121/17 84/123/17 81/122/17
f 84/123/18 82/119/18 79/116/18
f 82/119/19 64/96/19 65/95/19
f 65/99/20 66/98/20 84/123/20
f 66/98/21 64/96/21 82/119/21
f 85/125/22 86/160/22 88/126/22
f 88/126/23 90/161/23 89/128/23
f 89/128/24 90/161/24 92/129/24
f 90/133/25 88/162/25 86/163/25
f 86/163/25 94/131/25 90/133/25
f 92/129/26 94/164/26 93/134/26
f 93/134/27 94/164/27 86/135/27
f 93/139/28 85/165/28 87/137/28
f 87/137/28 89/166/28 91/138/28
f 106/140/22 108/143/22 107/141/22
f 108/143/23 110/167/23 109/144/23
f 109/144/24 110/167/24 112/145/24
f 110/149/25 108/168/25 106/147/25
f 106/147/25 114/169/25 112/148/25
f 112/145/26 114/170/26 113/150/26
f 113/150/27 114/170/27 106/151/27
f 113/155/28 105/171/28 107/172/28
f 107/172/28 109/153/28 113/155/28
usemtl gun_material
f 95/173/22 98/174/22 97/175/22
f 98/174/23 99/176/23 97/175/23
f 100/177/24 101/178/24 99/176/24
f 96/179/25 102/180/25 100/181/25
f 102/182/26 103/183/26 101/178/26
f 104/184/27 95/185/27 103/183/27
f 97/186/28 101/187/28 103/188/28
f 95/173/22 96/189/22 98/174/22
f 98/174/23 100/177/23 99/176/23
f 100/177/24 102/182/24 101/178/24
f 100/181/25 98/190/25 96/179/25
f 96/179/25 104/191/25 102/180/25
f 102/182/26 104/184/26 103/183/26
f 104/184/27 96/192/27 95/185/27
f 103/188/28 95/193/28 97/186/28
f 97/186/28 99/194/28 101/187/28
