# Blender v2.93.5 OBJ File: 'node_damage.blend'
# www.blender.org
mtllib node_damage_2.mtl
o Icosphere.001_Icosphere.002
v 0.942316 -0.133141 0.395623
v 1.009936 0.213523 0.853196
v 0.768985 0.213522 0.679623
v 0.843549 0.167437 0.374962
v 1.156561 0.213522 0.395623
v 1.249473 0.213522 0.677674
v 1.033958 0.346716 0.523504
v 0.983866 -0.216242 0.677674
v 1.007888 -0.083048 0.853196
v 1.248839 -0.083048 0.679623
v 1.127505 -0.205873 0.600589
v 0.768351 -0.083048 0.677674
v 0.809332 -0.141822 0.530882
v 1.158221 -0.083048 0.396829
v 1.304437 0.080408 0.600589
v 1.100235 0.080408 0.881649
v 0.842510 0.065237 0.829621
v 0.713388 0.050066 0.600589
v 1.100235 0.080408 0.319528
v 1.104855 0.336348 0.670295
v 0.890320 0.336347 0.600589
vt 0.727273 0.000000
vt 0.750000 0.118096
vt 0.659399 0.117562
vt 0.545455 0.000000
vt 0.613329 0.117562
vt 0.500000 0.078731
vt 0.681408 0.288606
vt 0.318798 0.157461
vt 0.363637 0.236191
vt 0.181819 0.236191
vt 0.136980 0.157461
vt 0.045455 0.236191
vt 0.545455 0.236191
vt 0.500617 0.157461
vt 0.135748 0.314921
vt 0.317566 0.314921
vt 0.272728 0.393651
vt 0.000000 0.314921
vt 0.045455 0.393651
vt 0.863021 0.314921
vt 0.818182 0.393651
vt 0.499384 0.314921
vt 0.613329 0.432483
vt 0.409092 0.393651
vt 0.477581 0.432483
vt 0.681818 0.393651
vt 0.136365 0.393651
vt 0.090910 0.472382
vt 0.818182 0.236191
vt 0.864253 0.157461
vt 0.954545 0.236191
vt 1.000000 0.157461
vt 0.863636 0.078731
vt 0.932126 0.039899
vt 0.363637 0.078731
vt 0.158784 0.039899
vt 0.227273 0.078731
vn -0.1933 -0.9485 -0.2510
vn -0.0764 -0.9594 -0.2714
vn -0.6779 -0.2698 -0.6838
vn 0.8090 0.0090 0.5878
vn -0.1941 -0.0608 0.9791
vn -0.2571 -0.1501 -0.9547
vn 0.8090 0.0090 -0.5878
vn 0.4741 0.5971 0.6470
vn -0.3933 0.7398 0.5459
vn -0.7666 0.5801 -0.2754
vn -0.0493 0.6678 -0.7427
vn 0.6391 0.7398 -0.2105
vn 0.5941 0.7701 -0.2325
vn -0.3353 0.7862 -0.5191
vn -0.0271 0.9961 0.0835
vn -0.1598 0.8559 0.4918
vn 0.8240 0.4974 -0.2714
vn 0.8090 -0.0063 -0.5878
vn -0.0167 0.5015 -0.8650
vn -0.8617 0.4262 -0.2754
vn -0.5162 0.4689 0.7166
vn -0.2014 0.0721 0.9768
vn 0.5128 0.4974 0.6998
vn 0.8090 -0.0063 0.5878
vn 0.0972 -0.3971 -0.9126
vn -0.8019 -0.1959 -0.5645
vn -0.9031 -0.4212 -0.0835
vn -0.8712 0.0608 0.4871
vn -0.8668 -0.0722 0.4934
vn -0.5220 -0.4689 0.7124
vn 0.5287 -0.4264 0.7339
vn 0.8614 -0.4264 -0.2760
vn 0.2004 -0.8521 -0.4834
vn -0.5161 -0.8351 0.1903
vn -0.4272 -0.6912 0.5829
vn 0.7639 -0.5971 -0.2448
vn 0.3439 -0.7701 0.5373
vn 0.3933 -0.7398 0.5459
usemtl skin
s off
f 8/1/1 13/2/1 1/3/1
f 8/4/2 1/5/2 11/6/2
f 1/3/3 13/2/3 4/7/3
f 10/8/4 15/9/4 16/10/4
f 9/11/5 16/10/5 17/12/5
f 1/3/6 4/7/6 19/13/6
f 14/14/7 19/13/7 15/9/7
f 2/15/8 6/16/8 20/17/8
f 3/18/9 2/15/9 21/19/9
f 4/7/10 3/20/10 21/21/10
f 5/22/11 4/7/11 7/23/11
f 6/16/12 5/22/12 20/24/12
f 20/24/13 5/22/13 7/25/13
f 7/23/14 4/7/14 21/26/14
f 21/19/15 20/27/15 7/28/15
f 21/19/16 2/15/16 20/27/16
f 15/9/17 5/22/17 6/16/17
f 15/9/18 19/13/18 5/22/18
f 19/13/19 4/7/19 5/22/19
f 18/29/20 3/20/20 4/7/20
f 17/12/21 2/15/21 3/18/21
f 17/12/22 16/10/22 2/15/22
f 16/10/23 6/16/23 2/15/23
f 16/10/24 15/9/24 6/16/24
f 14/14/25 1/3/25 19/13/25
f 4/7/26 13/2/26 18/29/26
f 13/2/27 12/30/27 18/29/27
f 18/29/28 17/31/28 3/20/28
f 18/29/29 12/30/29 17/31/29
f 12/30/30 9/32/30 17/31/30
f 9/11/31 10/8/31 16/10/31
f 10/8/32 14/14/32 15/9/32
f 11/6/33 1/5/33 14/14/33
f 13/33/34 8/34/34 12/30/34
f 8/34/35 9/32/35 12/30/35
f 10/8/36 11/35/36 14/14/36
f 8/36/37 11/37/37 9/11/37
f 11/37/38 10/8/38 9/11/38
o Icosphere.003_Icosphere.004
v -0.303720 -0.205855 0.607973
v -0.308054 0.096152 1.140607
v -0.535919 0.109607 0.609547
v -0.236015 0.096152 0.568264
v -0.064119 0.096152 0.880606
v -0.417145 0.314334 0.804859
v -0.312889 -0.306367 0.880605
v -0.366076 -0.149269 1.103801
v -0.117053 -0.149268 0.924414
v -0.613786 -0.192442 0.842732
v -0.625361 0.108354 0.995147
v -0.670441 -0.011696 0.842732
v -0.265861 0.284175 0.914774
vt 0.727273 0.000000
vt 0.805311 0.137153
vt 0.572377 0.139429
vt 0.681408 0.288606
vt 0.318798 0.157461
vt 0.341334 0.274305
vt 0.159516 0.274305
vt 0.136980 0.157461
vt 0.014940 0.289045
vt 0.523152 0.274305
vt 0.551556 0.139429
vt 0.272728 0.393651
vt 0.067460 0.431766
vt 0.893102 0.289045
vt 0.818182 0.393651
vt 0.648662 0.412450
vt 0.409092 0.393651
vt 0.477581 0.432483
vt 0.136365 0.393651
vt 0.818182 0.236191
vt 0.863935 0.116845
vt 1.000000 0.157461
vt 0.932126 0.039899
vt 0.363637 0.078731
vt 0.194117 0.059932
vn -0.2955 -0.8931 -0.3392
vn -0.5618 -0.4099 -0.7186
vn 0.7288 -0.0351 0.6838
vn -0.4176 -0.0374 0.9079
vn -0.1400 -0.0982 -0.9853
vn 0.8479 -0.2515 -0.4667
vn 0.6092 0.5498 0.5715
vn -0.2371 0.7776 0.5823
vn -0.7690 0.6144 -0.1764
vn -0.0650 0.7083 -0.7029
vn 0.6110 0.7167 -0.3363
vn 0.4477 0.8015 -0.3964
vn -0.2727 0.7638 0.5850
vn -0.8170 0.5452 -0.1877
vn -0.7795 -0.2443 -0.5768
vn -0.8474 -0.2656 0.4598
vn -0.6444 -0.3652 0.6718
vn 0.5657 -0.2515 0.7853
vn 0.8506 -0.2646 -0.4544
vn -0.3631 -0.8005 0.4769
vn 0.6394 -0.7282 -0.2469
vn 0.4227 -0.6906 0.5868
usemtl skin
s off
f 28/38/39 31/39/39 22/40/39
f 22/40/40 31/39/40 24/41/40
f 30/42/41 26/43/41 23/44/41
f 29/45/42 23/44/42 32/46/42
f 22/40/43 24/41/43 25/47/43
f 22/48/44 25/47/44 26/43/44
f 23/44/45 26/43/45 34/49/45
f 32/46/46 23/44/46 27/50/46
f 24/41/47 32/51/47 27/52/47
f 25/47/48 24/41/48 27/53/48
f 26/43/49 25/47/49 34/54/49
f 34/54/50 25/47/50 27/55/50
f 27/50/51 23/44/51 34/56/51
f 33/57/52 32/51/52 24/41/52
f 24/41/53 31/39/53 33/57/53
f 33/57/54 31/58/54 32/51/54
f 31/58/55 29/59/55 32/51/55
f 29/45/56 30/42/56 23/44/56
f 30/42/57 22/48/57 26/43/57
f 28/60/58 29/59/58 31/58/58
f 30/42/59 28/61/59 22/48/59
f 28/62/60 30/42/60 29/45/60
o Icosphere.002_Icosphere.007
v -0.772635 -0.145233 -0.655108
v -0.800752 0.036797 -0.070979
v -0.974216 0.124418 -0.653476
v -0.713858 0.112917 -0.696256
v -0.564629 0.112917 -0.372587
v -0.825849 0.315153 -0.411834
v -0.703348 -0.213056 -0.334996
v -1.081128 -0.091543 -0.411834
v -1.051863 0.123348 -0.253891
vt 0.727273 0.000000
vt 0.809435 0.168881
vt 0.572377 0.139429
vt 0.681408 0.288606
vt 0.237001 0.093477
vt 0.341334 0.274305
vt 0.151765 0.234117
vt 0.523152 0.274305
vt 0.551556 0.139429
vt 0.272728 0.393651
vt 0.014940 0.289045
vt 0.089534 0.419556
vt 0.893102 0.289045
vt 0.818182 0.393651
vt 0.648662 0.412450
vt 0.455640 0.420043
vt 0.849278 0.155078
vt 1.000000 0.157461
vt 0.932126 0.039899
vn -0.2769 -0.9504 -0.1414
vn -0.6010 -0.4452 -0.6638
vn 0.7898 -0.2727 0.5495
vn -0.1661 -0.1182 -0.9790
vn 0.8760 -0.2638 -0.4039
vn 0.4631 0.7029 0.5399
vn -0.1988 0.7519 0.6286
vn -0.6937 0.7079 -0.1329
vn -0.0623 0.8017 -0.5945
vn 0.6134 0.7374 -0.2828
vn -0.9470 0.2637 -0.1833
vn -0.6254 -0.4050 0.6669
vn 0.8730 -0.4032 -0.2744
vn -0.3544 -0.7409 0.5705
usemtl skin
s off
f 41/63/61 42/64/61 35/65/61
f 35/65/62 42/64/62 37/66/62
f 41/67/63 39/68/63 36/69/63
f 35/65/64 37/66/64 38/70/64
f 35/71/65 38/70/65 39/68/65
f 36/69/66 39/68/66 40/72/66
f 43/73/67 36/69/67 40/74/67
f 37/66/68 43/75/68 40/76/68
f 38/70/69 37/66/69 40/77/69
f 39/68/70 38/70/70 40/78/70
f 42/64/71 43/75/71 37/66/71
f 42/79/72 36/80/72 43/75/72
f 41/67/73 35/71/73 39/68/73
f 41/81/74 36/80/74 42/79/74
o Icosphere.007_Icosphere.009
v 0.358357 -0.190147 -1.196596
v 0.323232 0.040809 -0.585261
v 0.106529 0.151982 -1.194889
v 0.431786 0.137389 -1.239661
v 0.618212 0.137389 -0.900917
v 0.291878 0.393982 -0.941992
v 0.444915 -0.276200 -0.861575
v -0.027033 -0.122026 -0.941992
v 0.009527 0.150623 -0.776693
vt 0.727273 0.000000
vt 0.809435 0.168881
vt 0.572377 0.139429
vt 0.681408 0.288606
vt 0.237001 0.093477
vt 0.341334 0.274305
vt 0.151765 0.234117
vt 0.523152 0.274305
vt 0.551556 0.139429
vt 0.272728 0.393651
vt 0.014940 0.289045
vt 0.089534 0.419556
vt 0.893102 0.289045
vt 0.818182 0.393651
vt 0.648662 0.412450
vt 0.455640 0.420043
vt 0.849278 0.155078
vt 1.000000 0.157461
vt 0.932126 0.039899
vn -0.2796 -0.9449 -0.1705
vn -0.5530 -0.4034 -0.7291
vn 0.7443 -0.2531 0.6181
vn -0.1400 -0.0982 -0.9853
vn 0.8479 -0.2515 -0.4667
vn 0.4398 0.6573 0.6121
vn -0.1853 0.6901 0.6995
vn -0.6964 0.6998 -0.1593
vn -0.0586 0.7424 -0.6674
vn 0.6081 0.7198 -0.3347
vn -0.9413 0.2581 -0.2175
vn -0.5748 -0.3665 0.7316
vn 0.8615 -0.3917 -0.3232
vn -0.3346 -0.6889 0.6430
usemtl skin
s off
f 50/82/75 51/83/75 44/84/75
f 44/84/76 51/83/76 46/85/76
f 50/86/77 48/87/77 45/88/77
f 44/84/78 46/85/78 47/89/78
f 44/90/79 47/89/79 48/87/79
f 45/88/80 48/87/80 49/91/80
f 52/92/81 45/88/81 49/93/81
f 46/85/82 52/94/82 49/95/82
f 47/89/83 46/85/83 49/96/83
f 48/87/84 47/89/84 49/97/84
f 51/83/85 52/94/85 46/85/85
f 51/98/86 45/99/86 52/94/86
f 50/86/87 44/90/87 48/87/87
f 50/100/88 45/99/88 51/98/88
o Cylinder
v 0.614962 -0.037292 -0.388560
v -0.087687 1.786875 -0.028649
v 0.644439 0.017487 0.445318
v 0.307676 1.776389 0.563950
v -0.219871 0.004332 1.041192
v -0.285965 1.690750 0.623331
v -1.034207 0.018480 0.097905
v -0.577295 1.499610 0.364492
v -0.282722 0.008162 -0.817365
v -0.524731 1.623880 0.117348
v 0.031647 0.823814 0.914958
v -0.495947 0.673149 0.270734
v -0.066933 1.357470 -0.702441
v 0.383469 1.253383 -0.481983
v 0.703221 1.184620 -0.297172
v -0.889768 1.142019 0.109179
v -0.680048 1.556857 -0.076293
v 0.087197 1.401392 -0.466439
v 0.708747 1.527435 -0.134313
v 0.863266 1.420267 0.319913
v 0.579569 1.610337 0.678619
v 0.217582 1.560310 0.960390
v -0.202951 1.408052 0.933591
v -0.785699 1.306417 0.613190
v -0.817631 1.475748 0.220310
v -0.407906 1.685776 -0.409973
v -0.271731 0.558640 0.380729
v 0.208060 0.855601 -0.359577
v 0.427424 0.187111 0.306503
v 0.285568 0.183779 0.631242
v 0.055442 0.223360 0.751700
v -0.428015 0.275469 0.638430
v -0.736916 0.239433 0.369902
v -0.761324 0.224396 0.027467
v -0.498685 0.242903 -0.271328
v 0.032624 0.213529 -0.506128
v 0.522856 0.175340 -0.119920
v 0.855727 1.030081 -0.006679
v 0.862538 1.296538 0.786975
v 0.527384 1.499984 0.879916
v 0.109618 1.305083 1.034729
v -0.305915 1.018093 0.969067
v -0.575489 1.041020 0.724574
v -0.823865 0.951080 0.404850
v -0.596541 1.437497 -0.345139
v -0.142876 0.887358 -0.376273
v -0.514916 0.797840 -0.113507
v -0.261250 0.819713 0.688285
v 0.771867 0.971394 0.297621
v 0.456667 0.773028 -0.237483
v 0.500083 0.723606 -0.017507
v 0.146918 0.561137 0.315574
v -0.010284 0.541573 0.303829
v 0.334969 0.631209 0.215863
v -0.117660 0.527454 0.345406
v 0.451426 0.665200 0.114374
vt 0.687986 0.982639
vt 0.623438 0.937866
vt 0.703796 0.937866
vt 0.514704 0.982639
vt 0.503172 0.937866
vt 0.572039 0.927927
vt 0.427639 0.912681
vt 0.363357 0.982639
vt 0.368165 0.926750
vt 0.266751 0.937866
vt 0.228897 0.982639
vt 0.170023 0.937866
vt 0.120199 0.982639
vt 0.056161 0.922858
vt 0.036755 0.982639
vt 0.021240 0.937866
vt 0.029191 0.857020
vt 0.021240 0.727198
vt 0.082400 0.729464
vt 0.108875 0.828410
vt 0.168681 0.744288
vt 0.468402 0.866649
vt 0.437597 0.749018
vt 0.509430 0.851651
vt 0.187836 0.869485
vt 0.122157 0.893094
vt 0.413640 0.847405
vt 0.575765 0.841393
vt 0.296524 0.875333
vt 0.240923 0.880534
vt 0.618223 0.844571
vt 0.670331 0.863000
vt 0.728020 0.857819
vt 0.642608 0.713527
vt 0.546960 0.733815
vt 0.524140 0.648591
vt 0.518564 0.725563
vt 0.474908 0.713777
vt 0.458165 0.646910
vt 0.368698 0.714003
vt 0.320424 0.653541
vt 0.404652 0.648646
vt 0.243493 0.740776
vt 0.249486 0.649760
vt 0.106327 0.649435
vt 0.179055 0.647542
vt 0.029777 0.649425
vt 0.727773 0.624457
vt 0.716742 0.648815
vt 0.650471 0.624457
vt 0.636438 0.649358
vt 0.512157 0.624457
vt 0.200395 0.624457
vt 0.051406 0.624457
vt 0.374686 0.758500
vt 0.782341 0.673490
vt 0.851399 0.616568
vt 0.935225 0.664393
vt 0.886043 0.982581
vt 0.889482 0.818420
vt 0.811635 0.838633
vt 0.345695 0.847933
vt 0.714128 0.727198
vt 0.527683 0.726079
vt 0.447169 0.701500
vt 0.420358 0.696496
vt 0.358770 0.624457
vt 0.530361 0.784624
vt 0.889862 0.763327
vt 0.801246 0.745646
vt 0.795634 0.933107
vt 0.953128 0.900610
vn 0.1704 0.7723 -0.6120
vn 0.5301 0.8474 -0.0298
vn 0.2828 0.8137 0.5078
vn -0.2859 0.6690 0.6861
vn -0.4659 0.5884 0.6608
vn -0.3232 0.8592 0.3966
vn -0.4499 0.8931 0.0052
vn 0.3795 0.7643 -0.5214
vn -0.0123 -0.5687 -0.8225
vn -0.4820 -0.3520 -0.8023
vn 0.2079 -0.1020 0.9728
vn -0.8795 0.2691 -0.3926
vn 0.2771 0.1588 0.9476
vn 0.9999 -0.0169 -0.0029
vn 0.5437 0.8392 0.0131
vn -0.5299 0.1866 -0.8273
vn 0.4151 0.8064 -0.4212
vn -0.8934 0.3035 -0.3314
vn -0.7119 -0.2967 0.6365
vn 0.5456 0.6671 0.5072
vn 0.9480 0.1240 -0.2932
vn 0.5237 0.3586 -0.7727
vn 0.3906 0.8249 -0.4086
vn 0.6304 -0.7214 -0.2865
vn 0.6529 0.4754 0.5897
vn -0.0914 0.6974 0.7109
vn -0.6063 0.4816 0.6328
vn -0.7461 0.1618 -0.6458
vn -0.3998 0.0720 -0.9138
vn 0.3844 0.5422 -0.7472
vn 0.8851 0.4612 -0.0616
vn -0.6056 0.6156 -0.5042
vn -0.4123 -0.7417 0.5290
vn -0.5776 -0.6125 0.5396
vn -0.4457 -0.6749 0.5881
vn -0.0811 0.8828 0.4627
vn -0.6077 0.7875 0.1025
vn -0.3108 0.8741 0.3734
vn -0.1715 0.8749 -0.4530
vn -0.3389 0.9402 0.0353
vn -0.0504 -0.9987 -0.0004
vn -0.4769 -0.7518 0.4553
vn -0.5513 -0.4136 -0.7245
vn -0.6850 -0.3238 -0.6527
vn 0.3244 -0.4060 -0.8544
vn 0.4041 -0.7155 0.5698
vn -0.6083 -0.0975 0.7877
vn 0.6494 -0.4751 -0.5937
vn 0.4059 -0.3647 -0.8380
vn -0.2576 0.1548 0.9538
vn -0.6418 0.2358 0.7297
vn -0.9523 0.1112 0.2841
vn 0.9047 0.2630 -0.3351
vn -0.7654 0.4655 -0.4444
vn -0.3035 0.9455 0.1178
vn 0.4007 -0.1339 -0.9064
vn -0.4801 -0.0122 0.8771
vn 0.2910 0.8051 0.5168
vn 0.6973 0.6926 0.1846
vn 0.2697 0.6174 -0.7390
vn -0.8864 0.4256 0.1819
vn 0.5840 0.2773 0.7630
vn -0.1340 0.6064 0.7838
vn 0.2801 0.8220 0.4959
vn -0.0148 0.6774 0.7354
vn 0.4764 0.4212 0.7718
vn -0.5970 0.2032 -0.7761
vn 0.0650 0.2051 -0.9766
vn 0.3097 0.7960 0.5201
vn 0.4277 0.7744 -0.4663
vn 0.5698 0.8150 0.1050
vn 0.5044 0.8326 0.2289
vn -0.7393 0.2053 0.6413
vn -0.0464 0.8174 0.5742
vn -0.6848 -0.6722 -0.2814
vn -0.6011 0.7992 0.0077
vn -0.6021 0.6302 -0.4902
vn -0.1448 0.8870 -0.4386
vn 0.8709 -0.4682 0.1497
vn 0.4467 -0.2835 0.8485
vn 0.6518 -0.7576 0.0335
vn 0.9659 0.1487 0.2121
vn 0.2842 0.9430 -0.1730
vn -0.2814 0.9376 0.2043
vn -0.3514 0.8643 0.3598
vn 0.0588 -0.9963 0.0634
vn -0.0156 -0.9999 -0.0015
vn -0.4545 -0.7293 0.5115
vn 0.2948 -0.3974 -0.8690
vn -0.1838 0.3458 0.9201
vn -0.9937 0.0474 0.1012
vn 0.6193 0.0100 -0.7851
vn -0.8695 0.4923 0.0404
vn 0.5414 0.2834 0.7916
vn -0.6077 0.4769 0.6351
vn -0.7214 -0.6684 -0.1813
vn 0.9300 -0.2740 -0.2451
vn 0.7055 -0.7068 -0.0527
vn -0.0688 -0.8775 0.4746
vn 0.5124 -0.7560 0.4074
vn 0.2666 -0.8818 0.3890
vn 0.5032 -0.7569 0.4170
vn 0.4426 -0.7869 0.4300
vn 0.9159 0.1093 0.3863
vn 0.5326 -0.7690 0.3536
usemtl skin
s off
f 54/101/89 71/102/89 70/103/89
f 56/104/90 73/105/90 72/106/90
f 73/105/91 56/104/91 74/107/91
f 74/107/92 58/108/92 75/109/92
f 58/108/93 76/110/93 75/109/93
f 60/111/94 77/112/94 76/110/94
f 77/112/95 62/113/95 78/114/95
f 54/115/96 70/116/96 78/114/96
f 65/117/97 80/118/97 98/119/97
f 97/120/98 98/119/98 99/121/98
f 92/122/99 63/123/99 91/124/99
f 68/125/100 69/126/100 97/120/100
f 74/107/101 93/127/101 92/122/101
f 72/106/102 91/124/102 90/128/102
f 71/102/103 56/104/103 72/106/103
f 78/114/104 65/117/104 97/120/104
f 78/114/105 70/116/105 65/117/105
f 77/112/106 69/126/106 68/125/106
f 95/129/107 76/110/107 96/130/107
f 73/105/108 92/122/108 91/124/108
f 71/102/109 72/106/109 67/131/109
f 71/102/110 67/131/110 66/132/110
f 65/133/111 70/103/111 66/132/111
f 102/134/112 90/128/112 103/135/112
f 81/136/113 106/137/113 104/138/113 82/139/113
f 79/140/114 84/141/114 83/142/114
f 64/143/115 85/144/115 84/141/115
f 99/121/116 87/145/116 86/146/116
f 98/119/117 88/147/117 87/145/117
f 61/148/118 88/149/118 53/150/118
f 89/151/119 55/152/119 53/150/119
f 59/153/120 87/145/120 61/154/120
f 95/129/121 96/130/121 64/143/121
f 100/155/122 64/143/122 79/140/122
f 63/123/123 100/155/123 79/140/123
f 74/107/124 56/104/124 58/108/124
f 76/110/125 58/108/125 60/111/125
f 60/111/126 62/113/126 77/112/126
f 60/156/127 58/157/127 56/158/127
f 78/114/128 62/113/128 54/115/128
f 57/159/129 61/160/129 53/161/129
f 95/129/130 100/155/130 94/162/130
f 97/120/131 65/117/131 98/119/131
f 68/125/132 97/120/132 99/121/132
f 66/132/133 80/163/133 65/133/133
f 100/155/134 93/127/134 94/162/134
f 63/123/135 93/127/135 100/155/135
f 102/134/136 67/131/136 90/128/136
f 102/134/137 66/132/137 67/131/137
f 93/127/138 75/109/138 94/162/138
f 75/109/139 95/129/139 94/162/139
f 96/130/140 77/112/140 68/125/140
f 67/131/141 72/106/141 90/128/141
f 69/126/142 78/114/142 97/120/142
f 69/126/143 77/112/143 78/114/143
f 89/151/144 80/163/144 102/134/144
f 95/129/145 75/109/145 76/110/145
f 92/122/146 73/105/146 74/107/146
f 72/106/147 73/105/147 91/124/147
f 70/103/148 71/102/148 66/132/148
f 86/146/149 64/143/149 99/121/149
f 81/136/150 108/164/150 106/137/150
f 82/139/151 104/138/151 105/165/151
f 83/142/152 107/166/152 79/140/152
f 79/140/153 64/143/153 84/141/153
f 57/167/154 82/139/154 83/142/154
f 87/145/155 99/121/155 98/119/155
f 98/119/156 80/118/156 88/147/156
f 82/139/157 105/165/157 107/166/157 83/142/157
f 53/150/158 88/149/158 89/151/158
f 55/152/159 89/151/159 81/136/159
f 55/152/160 81/136/160 82/139/160
f 57/167/161 85/144/161 59/153/161
f 83/142/162 84/141/162 57/167/162
f 68/125/163 64/143/163 96/130/163
f 59/153/164 85/144/164 86/146/164
f 59/153/165 86/146/165 87/145/165
f 61/154/166 87/145/166 88/147/166
f 90/128/167 91/124/167 101/168/167
f 92/122/168 93/127/168 63/123/168
f 90/128/169 101/168/169 103/135/169
f 102/134/170 81/136/170 89/151/170
f 71/102/171 54/101/171 56/104/171
f 54/169/172 62/170/172 56/158/172
f 62/170/173 60/156/173 56/158/173
f 53/161/174 55/171/174 57/159/174
f 57/159/175 59/172/175 61/160/175
f 95/129/176 64/143/176 100/155/176
f 66/132/177 102/134/177 80/163/177
f 93/127/178 74/107/178 75/109/178
f 96/130/179 76/110/179 77/112/179
f 89/151/180 88/149/180 80/163/180
f 86/146/181 85/144/181 64/143/181
f 57/167/182 55/152/182 82/139/182
f 57/167/183 84/141/183 85/144/183
f 68/125/184 99/121/184 64/143/184
f 103/135/185 81/136/185 102/134/185
f 103/135/186 101/168/186 108/164/186
f 79/140/187 107/166/187 63/123/187
f 106/137/188 101/168/188 91/124/188
f 107/166/189 105/165/189 63/123/189
f 104/138/190 106/137/190 91/124/190
f 105/165/191 104/138/191 91/124/191 63/123/191
f 108/164/192 81/136/192 103/135/192
f 106/137/193 108/164/193 101/168/193
