# Blender v2.93.5 OBJ File: 'spawner.blend'
# www.blender.org
mtllib spawner.mtl
o Torus
v 1.350000 0.000000 0.000000
v 1.203553 0.353553 0.000000
v 0.850000 0.500000 0.000000
v 0.484153 0.352994 -0.011812
v 0.384878 -0.001301 -0.037421
v 0.496633 -0.353560 -0.000200
v 0.850000 -0.342583 0.000000
v 1.203553 -0.353553 0.000000
v 1.005939 0.023646 -0.961956
v 0.877952 0.348142 -0.844923
v 0.724855 0.438762 -0.552531
v 0.387480 0.340818 -0.354019
v 0.313143 -0.016050 -0.300802
v 0.363008 -0.354094 -0.363762
v 0.601041 -0.342583 -0.601041
v 0.859311 -0.349745 -0.852227
v -0.048695 -0.009278 -1.375607
v -0.010262 0.328399 -1.208950
v 0.000000 0.355965 -0.850000
v -0.012389 0.316005 -0.486814
v 0.000707 -0.028012 -0.339468
v -0.004620 -0.360379 -0.482920
v 0.000000 -0.342583 -0.850000
v -0.007843 -0.355048 -1.207678
v -1.051345 -0.031658 -0.951523
v -0.866320 0.341065 -0.850319
v -0.610525 0.499014 -0.623773
v -0.412315 0.349121 -0.491308
v -0.284451 0.020461 -0.316155
v -0.355243 -0.347860 -0.365614
v -0.601041 -0.342583 -0.601041
v -0.867320 -0.341750 -0.851064
v -1.350000 0.000000 -0.000000
v -1.203553 0.353553 -0.000000
v -0.850000 0.500000 -0.000000
v -0.498895 0.353378 -0.005926
v -0.360941 0.015109 -0.038383
v -0.496491 -0.353494 -0.000153
v -0.850000 -0.342583 -0.000000
v -1.203553 -0.353553 -0.000000
v -0.954594 0.000000 0.954594
v -0.851041 0.329240 0.851041
v -0.601041 0.349049 0.601041
v -0.347777 0.322550 0.357198
v -0.222193 0.000636 0.280868
v -0.350906 -0.353545 0.351218
v -0.601041 -0.342583 0.601041
v -0.851041 -0.353553 0.851041
v 0.000000 0.000000 1.350000
v 0.000000 0.353553 1.203553
v 0.002929 0.493739 0.855599
v 0.014719 0.314805 0.531380
v 0.056786 -0.004821 0.426719
v 0.008567 -0.353042 0.507671
v 0.000000 -0.342583 0.850000
v 0.000000 -0.353553 1.203553
v 0.930980 -0.008865 0.963802
v 0.751785 0.289628 0.899360
v 0.614768 0.313257 0.617228
v 0.285734 0.336653 0.293355
v 0.261541 0.000868 0.269863
v 0.351171 -0.353546 0.351212
v 0.601040 -0.342583 0.601041
v 0.851040 -0.353553 0.851041
v 1.434007 -0.176777 -0.000000
v 1.048630 -0.160826 -1.018962
v 0.000000 -0.176777 1.434007
v -1.013996 -0.176777 1.013995
v -0.032848 -0.183035 -1.451280
v 1.013995 -0.176777 1.013996
v -1.079507 -0.192123 -1.012108
v -1.434006 -0.176777 -0.000000
vt 0.141446 0.667572
vt 0.141446 0.857858
vt 0.105307 0.687013
vt 0.780735 0.060279
vt 0.877907 0.191994
vt 0.766624 0.129624
vt 0.755131 0.191839
vt 0.383801 0.522239
vt 0.315202 0.586628
vt 0.305566 0.516781
vt 0.384911 0.654836
vt 0.299536 0.652333
vt 0.124278 0.291970
vt 0.064555 0.191628
vt 0.127303 0.217407
vt 0.000000 0.342747
vt 0.001517 0.165642
vt 0.792128 0.000098
vt 0.961143 0.154903
vt 0.787300 0.021337
vt 0.786417 0.938236
vt 0.832214 0.800342
vt 0.862880 0.915257
vt 0.938908 0.182007
vt 0.921485 0.344837
vt 0.826320 0.235371
vt 0.241817 0.516526
vt 0.170830 0.591359
vt 0.173604 0.532065
vt 0.107836 0.521589
vt 0.153162 0.405305
vt 0.064555 0.316957
vt 0.741338 0.945662
vt 0.748210 0.800991
vt 0.836533 0.631861
vt 0.991700 0.372058
vt 0.851082 0.443851
vt 0.830902 0.392520
vt 0.843167 0.317952
vt 0.235570 0.590880
vt 0.180349 0.646514
vt 0.105307 0.589989
vt 0.252027 0.344923
vt 0.180847 0.340040
vt 0.278472 0.404919
vt 0.128056 0.469491
vt 0.704881 0.603437
vt 0.703884 0.806393
vt 0.745218 0.605051
vt 0.874341 0.500608
vt 0.881308 0.500621
vt 0.702385 0.438808
vt 0.721778 0.371052
vt 0.795597 0.343849
vt 0.473189 0.577912
vt 0.422324 0.519604
vt 0.501410 0.535985
vt 0.304040 0.290071
vt 0.370152 0.316547
vt 0.309010 0.469236
vt 0.105307 0.681638
vt 0.066187 0.529522
vt 0.097088 0.516526
vt 0.070101 0.686811
vt 0.004675 0.872963
vt 0.000000 0.695887
vt 0.676538 0.495819
vt 0.575448 0.341037
vt 0.217656 0.667572
vt 0.240065 0.741968
vt 0.203245 0.742241
vt 0.385083 0.645279
vt 0.383131 0.572874
vt 0.367080 0.190696
vt 0.444340 0.344238
vt 0.070101 0.885469
vt 0.941909 0.687936
vt 0.884138 0.535664
vt 0.946487 0.513535
vt 0.476835 0.187212
vt 0.501739 0.364907
vt 0.620970 0.234400
vt 0.644882 0.313946
vt 0.289075 0.654736
vt 0.267140 0.727787
vt 0.241817 0.666559
vt 0.473733 0.642860
vt 0.422611 0.697638
vt 0.304032 0.216799
vt 0.278472 0.102348
vt 0.430136 0.164367
vt 0.979924 0.500853
vt 0.888311 0.832195
vt 0.874688 0.688776
vt 0.629055 0.119305
vt 0.550332 0.217990
vt 0.365104 0.657960
vt 0.303381 0.717576
vt 0.361440 0.778134
vt 0.282987 0.778429
vt 0.251599 0.162619
vt 0.153162 0.102734
vt 0.304413 0.039227
vt 0.975332 0.687055
vt 0.945883 0.867704
vt 0.581827 0.073382
vt 0.582688 0.026675
vt 0.683302 0.204235
vt 0.259471 0.522986
vt 0.263646 0.587924
vt 0.241817 0.654628
vt 0.179092 0.165426
vt 0.126981 0.039773
vt 0.579825 0.002625
vt 0.613704 0.653407
vt 0.660724 0.495239
vt 0.709009 0.537781
vt 0.323338 0.000000
vt 0.474026 0.149253
vt 0.498675 0.364877
vt 0.339868 0.515587
vt 0.116436 0.516526
vt 0.687143 0.940034
vt 0.529728 0.830406
vt 0.603257 0.816527
vt 0.546356 0.635504
vt 0.375239 0.591728
vt 0.502349 0.824225
vt 0.241817 0.667572
vt 0.108863 0.659483
vt 0.732280 0.336214
vt 0.424998 0.760327
vt 0.381665 0.761304
vt 0.392316 0.697818
vt 0.105307 0.892658
vt 0.501861 0.687193
vt 0.358277 0.719888
vt 0.978195 0.884254
vt 0.203245 0.738110
vt 0.141446 0.738110
vt 0.149953 0.667572
vt 0.111932 0.000651
vt 0.635223 0.981170
vn 0.8697 0.3602 -0.3375
vn 0.3760 0.9078 -0.1858
vn -0.3723 0.9279 -0.0185
vn -0.9356 0.2437 0.2556
vn -0.9080 -0.2528 0.3341
vn 0.0311 -0.9995 -0.0099
vn -0.0310 -0.9995 0.0081
vn 0.8621 0.4097 -0.2983
vn 0.3335 0.4335 -0.8372
vn 0.0102 0.9566 -0.2911
vn -0.1807 0.9686 0.1708
vn -0.1275 0.1722 0.9768
vn -0.1129 -0.1980 0.9737
vn 0.0142 -0.9993 -0.0342
vn -0.0083 -0.9998 0.0200
vn 0.3329 0.3479 -0.8764
vn -0.3400 0.4470 -0.8274
vn 0.1989 0.9767 -0.0807
vn 0.0808 0.9905 0.1117
vn 0.1413 0.3943 0.9081
vn 0.0077 -0.3964 0.9181
vn -0.0520 -0.9974 -0.0490
vn 0.0143 -0.9993 0.0345
vn -0.3659 0.3433 -0.8650
vn -0.8078 0.4900 -0.3276
vn -0.4124 0.8969 -0.1597
vn 0.5065 0.8404 0.1931
vn 0.8900 0.4288 0.1550
vn 0.9425 -0.2154 0.2554
vn -0.0049 -0.9998 -0.0173
vn -0.0023 -1.0000 -0.0009
vn -0.9047 0.2800 -0.3211
vn -0.8597 0.3561 0.3663
vn -0.3565 0.8606 0.3638
vn 0.3854 0.9200 0.0714
vn 0.8637 0.3836 -0.3269
vn 0.8637 -0.3548 -0.3579
vn -0.0308 -0.9994 0.0128
vn 0.0310 -0.9994 -0.0128
vn -0.8459 0.4020 0.3504
vn -0.3540 0.3801 0.8545
vn -0.0433 0.9984 0.0358
vn 0.0489 0.9971 -0.0575
vn 0.4105 0.3589 -0.8383
vn 0.3796 -0.3110 -0.8713
vn -0.0128 -0.9994 0.0310
vn 0.0128 -0.9994 -0.0310
vn -0.3504 0.4020 0.8459
vn 0.3765 0.3545 0.8559
vn 0.3873 0.8540 0.3473
vn 0.0709 0.8744 -0.4800
vn -0.6590 0.1543 -0.7362
vn -0.4108 -0.1521 -0.8990
vn 0.0128 -0.9994 0.0309
vn -0.0128 -0.9994 -0.0310
vn 0.3542 0.4014 0.8446
vn 0.7719 0.5369 0.3405
vn 0.0128 0.9969 0.0773
vn 0.0112 0.9981 0.0607
vn -0.9238 0.0925 -0.3715
vn -0.8796 -0.3060 -0.3641
vn 0.0310 -0.9994 0.0128
vn -0.0310 -0.9994 -0.0128
vn 0.7940 0.4971 0.3498
vn 0.5902 -0.7694 0.2445
vn 0.2445 -0.7694 0.5902
vn -0.2445 -0.7694 0.5902
vn -0.5902 -0.7694 0.2445
vn -0.4623 -0.8651 -0.1946
vn -0.2381 -0.8047 -0.5438
vn 0.2467 -0.7684 -0.5905
vn 0.5915 -0.7711 -0.2358
vn 0.8488 0.4403 -0.2927
vn 0.3142 0.9408 -0.1271
vn -0.2577 0.9655 0.0384
vn -0.9416 0.2325 0.2435
vn -0.9447 -0.1892 0.2679
vn 0.0342 -0.9993 -0.0142
vn -0.0198 -0.9998 0.0082
vn 0.8912 0.3089 -0.3322
vn 0.3260 0.3883 -0.8620
vn 0.0093 0.9970 -0.0768
vn -0.0965 0.9897 0.1056
vn -0.3138 0.3637 0.8771
vn -0.2798 -0.3767 0.8831
vn 0.0326 -0.9983 -0.0480
vn -0.0082 -0.9994 0.0350
vn 0.3328 0.4019 -0.8531
vn -0.3634 0.4078 -0.8376
vn -0.1670 0.8872 -0.4300
vn 0.3517 0.8365 0.4203
vn 0.0298 0.4791 0.8772
vn 0.3059 -0.1842 0.9341
vn -0.0065 -0.9999 -0.0156
vn -0.0117 -0.9999 0.0091
vn -0.3669 0.3843 -0.8472
vn -0.8843 0.3663 -0.2897
vn -0.3776 0.9115 -0.1631
vn 0.3855 0.9207 0.0607
vn 0.9036 0.3440 0.2554
vn 0.8933 -0.2932 0.3407
vn -0.0309 -0.9994 -0.0128
vn 0.0310 -0.9995 -0.0016
vn -0.8656 0.4114 -0.2854
vn -0.8545 0.3801 0.3540
vn -0.0358 0.9984 0.0433
vn 0.1318 0.9908 0.0293
vn 0.8427 0.4112 -0.3476
vn 0.8412 -0.3818 -0.3829
vn -0.0311 -0.9994 0.0127
vn -0.3663 0.3561 0.8597
vn -0.3543 0.8684 0.3469
vn -0.0060 0.8754 -0.4833
vn 0.4422 0.3311 -0.8335
vn 0.4433 -0.2608 -0.8576
vn -0.0118 -0.9995 0.0302
vn 0.3551 0.3960 0.8468
vn 0.0988 0.9945 0.0353
vn -0.0090 0.9967 0.0812
vn -0.6069 0.0989 -0.7886
vn -0.5710 -0.3181 -0.7568
vn 0.0127 -0.9994 0.0311
vn 0.3470 0.4219 0.8376
vn 0.8292 0.3435 0.4409
vn 0.3521 0.8502 0.3914
vn -0.3732 0.9178 0.1355
vn -0.8147 0.2655 -0.5155
vn -0.8811 -0.3166 -0.3514
vn 0.0310 -0.9994 0.0129
vn 0.8459 0.4020 0.3504
vn -0.5967 -0.7779 -0.1972
vn -0.2055 -0.8371 -0.5070
vn 0.2462 -0.7796 -0.5758
vn 0.5746 -0.7838 -0.2356
usemtl spawner
s off
f 1/1/1 10/2/1 2/3/1
f 2/4/2 11/5/2 3/6/2
f 11/5/3 4/7/3 3/6/3
f 12/8/4 5/9/4 4/10/4
f 5/9/5 14/11/5 6/12/5
f 14/13/6 7/14/6 6/15/6
f 7/14/7 16/16/7 8/17/7
f 65/18/8 9/19/8 1/20/8
f 9/21/9 18/22/9 10/23/9
f 10/24/10 19/25/10 11/5/10
f 19/25/11 12/26/11 11/5/11
f 12/27/12 21/28/12 13/29/12
f 21/28/13 14/30/13 13/29/13
f 14/13/14 23/31/14 15/32/14
f 23/31/15 16/16/15 15/32/15
f 66/33/16 17/34/16 9/21/16
f 17/34/17 26/35/17 18/22/17
f 18/36/18 27/37/18 19/25/18
f 19/25/19 28/38/19 20/39/19
f 20/40/20 29/41/20 21/28/20
f 29/41/21 22/42/21 21/28/21
f 30/43/22 23/31/22 22/44/22
f 31/45/23 24/46/23 23/31/23
f 71/47/24 17/34/24 69/48/24
f 25/49/25 34/50/25 26/35/25
f 26/51/26 35/52/26 27/37/26
f 35/52/27 28/38/27 27/37/27
f 36/53/28 29/54/28 28/38/28
f 37/55/29 30/56/29 29/57/29
f 38/58/30 31/45/30 30/43/30
f 39/59/31 32/60/31 31/45/31
f 72/61/32 25/62/32 71/63/32
f 33/64/33 42/65/33 34/66/33
f 34/67/34 43/68/34 35/52/34
f 43/68/35 36/53/35 35/52/35
f 44/69/36 37/70/36 36/71/36
f 37/55/37 46/72/37 38/73/37
f 38/58/38 47/74/38 39/59/38
f 47/74/39 40/75/39 39/59/39
f 72/61/40 41/76/40 33/64/40
f 49/77/41 42/78/41 41/79/41
f 50/80/42 43/68/42 42/81/42
f 43/68/43 52/82/43 44/83/43
f 52/84/44 45/85/44 44/86/44
f 45/87/45 54/88/45 46/72/45
f 46/89/46 55/90/46 47/74/46
f 55/90/47 48/91/47 47/74/47
f 68/92/48 49/77/48 41/79/48
f 49/77/49 58/93/49 50/94/49
f 50/80/50 59/95/50 51/96/50
f 59/95/51 52/82/51 51/96/51
f 60/97/52 53/98/52 52/84/52
f 53/98/53 62/99/53 54/100/53
f 54/101/54 63/102/54 55/90/54
f 63/102/55 56/103/55 55/90/55
f 67/104/56 57/105/56 49/77/56
f 1/20/57 58/106/57 57/107/57
f 2/4/58 59/95/58 58/106/58
f 59/95/59 4/7/59 60/108/59
f 60/109/60 5/9/60 61/110/60
f 61/110/61 6/12/61 62/111/61
f 62/112/62 7/14/62 63/102/62
f 7/14/63 64/113/63 63/102/63
f 70/114/64 1/20/64 57/107/64
f 8/115/65 70/116/65 64/117/65
f 64/113/66 67/118/66 56/103/66
f 56/103/67 68/119/67 48/91/67
f 40/75/68 68/119/68 72/120/68
f 40/75/69 71/121/69 32/60/69
f 32/60/70 69/122/70 24/46/70
f 24/123/71 66/124/71 16/125/71
f 8/115/72 66/124/72 65/126/72
f 1/20/73 9/19/73 10/24/73
f 2/4/74 10/24/74 11/5/74
f 11/5/75 12/26/75 4/7/75
f 12/8/76 13/127/76 5/9/76
f 5/9/77 13/127/77 14/11/77
f 14/13/78 15/32/78 7/14/78
f 7/14/79 15/32/79 16/16/79
f 65/126/80 66/124/80 9/128/80
f 9/21/81 17/34/81 18/22/81
f 10/24/82 18/36/82 19/25/82
f 19/25/83 20/39/83 12/26/83
f 12/27/84 20/40/84 21/28/84
f 21/28/85 22/42/85 14/30/85
f 14/13/86 22/44/86 23/31/86
f 23/31/87 24/46/87 16/16/87
f 66/33/88 69/48/88 17/34/88
f 17/34/89 25/49/89 26/35/89
f 18/36/90 26/51/90 27/37/90
f 19/25/91 27/37/91 28/38/91
f 20/40/92 28/129/92 29/41/92
f 29/41/93 30/130/93 22/42/93
f 30/43/94 31/45/94 23/31/94
f 31/45/95 32/60/95 24/46/95
f 71/47/96 25/49/96 17/34/96
f 25/62/97 33/64/97 34/66/97
f 26/51/98 34/67/98 35/52/98
f 35/52/99 36/53/99 28/38/99
f 36/53/100 37/131/100 29/54/100
f 37/55/101 38/73/101 30/56/101
f 38/58/102 39/59/102 31/45/102
f 39/59/103 40/75/103 32/60/103
f 72/61/104 33/64/104 25/62/104
f 33/64/105 41/76/105 42/65/105
f 34/67/106 42/81/106 43/68/106
f 43/68/107 44/83/107 36/53/107
f 44/132/108 45/133/108 37/134/108
f 37/55/109 45/87/109 46/72/109
f 38/58/110 46/89/110 47/74/110
f 47/74/39 48/91/39 40/75/39
f 72/61/40 68/135/40 41/76/40
f 49/77/111 50/94/111 42/78/111
f 50/80/112 51/96/112 43/68/112
f 43/68/113 51/96/113 52/82/113
f 52/84/114 53/98/114 45/85/114
f 45/87/115 53/136/115 54/88/115
f 46/89/116 54/101/116 55/90/116
f 55/90/47 56/103/47 48/91/47
f 68/92/48 67/104/48 49/77/48
f 49/77/117 57/105/117 58/93/117
f 50/80/118 58/106/118 59/95/118
f 59/95/119 60/108/119 52/82/119
f 60/97/120 61/137/120 53/98/120
f 53/98/121 61/137/121 62/99/121
f 54/101/122 62/112/122 63/102/122
f 63/102/55 64/113/55 56/103/55
f 67/104/123 70/138/123 57/105/123
f 1/20/124 2/4/124 58/106/124
f 2/4/125 3/6/125 59/95/125
f 59/95/126 3/6/126 4/7/126
f 60/139/127 4/140/127 5/141/127
f 61/110/128 5/9/128 6/12/128
f 62/112/129 6/15/129 7/14/129
f 7/14/63 8/17/63 64/113/63
f 70/114/130 65/18/130 1/20/130
f 8/115/65 65/126/65 70/116/65
f 64/113/66 70/142/66 67/118/66
f 56/103/67 67/118/67 68/119/67
f 40/75/68 48/91/68 68/119/68
f 40/75/131 72/120/131 71/121/131
f 32/60/132 71/121/132 69/122/132
f 24/123/133 69/143/133 66/124/133
f 8/115/134 16/125/134 66/124/134
